<?xml version="1.0" encoding="UTF-8"?>
<svg id="Calque_1" data-name="Calque 1" xmlns="http://www.w3.org/2000/svg" viewBox="0 0 52.67 155.95">
  <defs>
    <style>
      .cls-1 {
        fill: #b2b2d8;
      }

      .cls-2 {
        fill: #fff9cc;
      }

      .cls-3 {
        fill: #af91db;
      }
    </style>
  </defs>
  <g id="light">
    <path id="bulb" class="cls-2" d="M38.07,143.07c0,7.11-5.26,12.88-11.75,12.88s-11.74-5.77-11.74-12.88,5.26-12.86,11.74-12.86,11.75,5.74,11.75,12.86Z"/>
    <rect id="svg_1" data-name="svg 1" class="cls-3" x="25.26" width="2.14" height="91.08"/>
    <path id="svg_2" data-name="svg 2" class="cls-1" d="M29.27,93.53v-2.79c.05-1.31-.96-2.41-2.27-2.47h-1.37c-1.3.06-2.31,1.17-2.26,2.47v2.79c1.89-.77,4-.77,5.89,0h.01,0Z"/>
    <path id="svg_3" data-name="svg 3" class="cls-3" d="M35,102.46v8.75l-.36-.08c-5.05-.78-10.18-.85-15.25-.19l-1.36.19-.37.08v-8.75c0-.47.04-.94.1-1.41.07-.5.17-1,.32-1.48,0-.06,0-.12.05-.18.07-.24.16-.47.26-.7,0-.04,0-.08,0-.12l.18-.41c.07-.15.14-.3.22-.44.29-.53.62-1.04,1-1.51.43-.53.9-1,1.43-1.43.16-.12.32-.25.5-.36.17-.12.35-.24.54-.34.18-.11.36-.22.55-.31l.56-.24c.93-.38,1.93-.58,2.93-.58,1.03,0,2.05.19,3,.58,2.59,1.08,4.54,3.3,5.3,6,.27.95.41,1.94.4,2.93h0Z"/>
    <path id="svg_4" data-name="svg 4" class="cls-3" d="M52.67,143.07H0l1.58-12.67c1-7.93,8.11-17.48,16.1-19.2l.37-.08,1.43-.2c5.04-.64,10.15-.57,15.18.2l.34.09c8,1.72,15.14,11.27,16.11,19.2l1.56,12.66h0Z"/>
    <path id="svg_5" data-name="svg 5" class="cls-1" d="M35,102.46h-17.35c0-.47.04-.94.1-1.41.07-.5.17-1,.32-1.48h16.5c.28.94.43,1.91.43,2.89ZM35,108.41v2.8l-.36-.08c-5.05-.78-10.18-.85-15.25-.19l-1.36.19-.37.08v-2.67c3-.3,6.17-.46,9.38-.46,2.7,0,5.36.13,7.96.33h0Z"/>
  </g>
</svg>